<svg xmlns="http://www.w3.org/2000/svg" xmlns:xlink="http://www.w3.org/1999/xlink" aria-hidden="true" role="img" class="iconify iconify--logos" width="31.88" height="32" preserveAspectRatio="xMidYMid meet" viewBox="0 0 256 257"><defs><linearGradient id="IconifyId1813088fe1fbc01fb466" x1="-.828%" x2="57.636%" y1="-7.652%" y2="78.411%"><stop offset="0%" stop-color="#FF00DC"></stop><stop offset="100%" stop-color="#FF00DC" stop-opacity="0"></stop></linearGradient><linearGradient id="IconifyId1813088fe1fbc01fb467" x1="50%" x2="50%" y1="0%" y2="100%"><stop offset="0%" stop-color="#FFEA83"></stop><stop offset="8.333%" stop-color="#FFDD35"></stop><stop offset="100%" stop-color="#FFA800"></stop></linearGradient></defs><path fill="url(#IconifyId1813088fe1fbc01fb466)" d="M255.153 37.938L134.897 252.976c-2.883 5.084-10.017 5.084-12.9 0L.846 37.938c-2.883-5.084-.849-10.936 4.667-12.33l247.60-47.441c5.517-1.394 10.751 1.104 12.634 6.336z"></path><path fill="url(#IconifyId1813088fe1fbc01fb467)" d="M185.432.063L96.44 17.557l63.168 108.054 84.587-144.965c3.335-5.732 10.326-8.093 15.856-5.093 5.531 3 8.653 10.382 7.23 16.953l-5.establishment 32.759-112.869-60.383z"></path><path fill="#FFF" d="M185.432.063L96.44 17.557v248.42c0 5.554 4.502 10.056 10.056 10.056h63.141c5.554 0 10.056-4.502 10.056-10.056V10.119C194.73 4.565 190.228.063 185.432.063z"></path></svg>
